<svg width="174" height="56" viewBox="0 0 174 56" fill="none" xmlns="http://www.w3.org/2000/svg">
<g id="Logo" clip-path="url(#clip0_838_5240)">
<path id="path26" d="M169 33.0192C169 32.7046 168.843 32.5478 168.529 32.5478H164.593C164.411 32.5478 164.14 32.5203 163.78 32.4645C163.42 32.4087 163.165 32.3812 163.013 32.3812C162.952 32.3812 162.737 32.5053 162.367 32.7533C161.997 33.0015 161.605 33.1255 161.189 33.1255H156.63C156.002 33.1255 155.688 32.8464 155.688 32.2899V31.9249C155.688 31.7024 155.77 31.5075 155.932 31.34C156.093 31.1725 156.286 31.0893 156.509 31.0893H159.365C160.024 31.0893 160.353 30.7649 160.353 30.1163V29.6458C160.353 28.9059 159.933 28.5364 159.092 28.5364H156.646C156.361 28.5364 156.131 28.4531 155.954 28.2856C155.777 28.1182 155.688 27.9134 155.688 27.6698V27.3968C155.688 27.1532 155.772 26.9635 155.939 26.8271C156.106 26.6898 156.301 26.6215 156.524 26.6215H157.42C157.603 26.6215 157.77 26.6649 157.922 26.7508C158.074 26.8368 158.2 26.8802 158.302 26.8802C158.414 26.8802 158.523 26.8572 158.629 26.812C158.735 26.7659 158.864 26.7535 159.016 26.7739C159.128 26.7836 159.262 26.8873 159.419 27.0849C159.575 27.2825 159.755 27.3817 159.958 27.3817C160.111 27.3817 160.247 27.2674 160.368 27.0397C160.49 26.812 160.614 26.703 160.741 26.7128C160.867 26.7234 161.027 26.7101 161.22 26.6747C161.412 26.6392 161.558 26.6215 161.66 26.6215H162.192C162.436 26.6215 162.638 26.5382 162.8 26.3708C162.962 26.2041 163.043 25.9782 163.043 25.6946V24.7678C163.043 24.2308 162.785 23.9623 162.268 23.9623H154.427C153.941 23.9623 153.551 24.0987 153.257 24.3725C152.963 24.6464 152.816 25.0469 152.816 25.5733V31.348C152.816 31.7228 152.692 32.0161 152.444 32.2288C152.196 32.4414 151.874 32.5478 151.479 32.5478H147.3C147.305 32.5478 147.308 32.5495 147.312 32.5495H147.288C147.292 32.5495 147.296 32.5478 147.3 32.5478H143.501C143.076 32.5478 142.762 32.3963 142.559 32.0923C142.357 31.7884 142.28 31.4136 142.331 30.9679C142.362 30.6737 142.377 30.3697 142.377 30.056C142.377 28.1111 141.829 26.6091 140.736 25.5502C139.642 24.4922 138.122 23.9623 136.177 23.9623H132.241C131.521 23.9623 131.162 24.2769 131.162 24.9042V25.4819C131.162 25.6034 131.099 25.816 130.972 26.1199C130.845 26.4239 130.782 26.6472 130.782 26.789C130.782 26.89 130.82 27.0371 130.896 27.2293C130.972 27.4216 131.01 27.5687 131.01 27.6698C131.01 27.7415 130.995 27.8301 130.965 27.9365C130.934 28.0428 130.919 28.1208 130.919 28.1713C130.919 28.2422 130.959 28.3645 131.04 28.5364C131.122 28.7083 131.162 28.9015 131.162 29.1141V30.6489C131.162 31.2364 130.98 31.6998 130.615 32.0392C130.251 32.3785 129.744 32.5478 129.095 32.5478H125.646C125.651 32.5478 125.653 32.5495 125.658 32.5495H125.634C125.638 32.5495 125.641 32.5478 125.645 32.5478H120.981C120.252 32.5478 119.719 32.771 119.385 33.2168C119.335 33.2877 119.273 33.3231 119.203 33.3231C118.98 33.3231 118.869 33.1459 118.869 32.7914V26.8492C118.869 26.4646 119.046 26.2723 119.4 26.2723H119.583C119.948 26.2723 120.129 26.0898 120.129 25.7248V24.8439C120.129 24.2662 119.861 23.9774 119.324 23.9774H115.601C115.145 23.9774 114.917 24.1803 114.917 24.5852V25.816C114.917 26.1199 115.059 26.2723 115.343 26.2723H115.784C116.037 26.2723 116.163 26.4194 116.163 26.7128V31.2869C116.163 31.7831 116.02 32.118 115.731 32.2899C115.442 32.4618 114.958 32.5478 114.279 32.5478H109.401C109.406 32.5478 109.409 32.5495 109.414 32.5495H109.389C109.393 32.5495 109.397 32.5478 109.401 32.5478H104.919C104.361 32.5478 104.068 32.32 104.037 31.8646C103.956 30.78 103.425 29.94 102.442 29.3419C101.823 28.9572 101.013 28.6427 100.01 28.3999L97.4726 27.7761C96.956 27.6148 96.6973 27.341 96.6973 26.9555C96.6973 26.3583 97.2954 26.0597 98.4907 26.0597H98.7336C98.8957 26.0597 99.0251 26.0774 99.1216 26.1128C99.2174 26.1483 99.3139 26.166 99.4096 26.166C99.5062 26.166 99.6028 26.1882 99.6985 26.2343C99.7951 26.2794 99.8784 26.2972 99.9492 26.2874C100.01 26.2777 100.064 26.2493 100.109 26.2041C100.155 26.158 100.197 26.135 100.238 26.135C100.268 26.135 100.314 26.1456 100.375 26.166C100.436 26.1864 100.481 26.1962 100.512 26.1962C100.542 26.1962 100.593 26.1731 100.663 26.1279C100.734 26.0819 100.82 26.0597 100.922 26.0597H101.682C101.783 26.0597 101.92 26.0668 102.092 26.0819C102.265 26.0978 102.381 26.1049 102.442 26.1049C102.735 26.1049 102.882 25.9737 102.882 25.7097V24.175C102.882 23.6885 102.644 23.4457 102.168 23.4457H98.567C97.2094 23.4457 96.0593 23.7345 95.1173 24.3114C93.9822 25.0008 93.4151 25.948 93.4151 27.1532C93.4151 28.1562 93.8511 28.9572 94.7221 29.5545C94.9552 29.6662 95.2892 29.8735 95.7252 30.1775C95.7757 30.2279 95.867 30.2891 95.9981 30.36C96.069 30.3396 96.1753 30.3246 96.318 30.3139C96.3783 30.3547 96.4792 30.4007 96.6219 30.4513C96.6015 30.4513 96.7433 30.4415 97.0472 30.4202C97.1483 30.4202 97.2546 30.4513 97.3662 30.5115C97.4061 30.5319 97.6702 30.5984 98.1566 30.7091C98.6937 30.8314 99.2298 30.9475 99.7667 31.0591C100.466 31.2922 100.816 31.6262 100.816 32.0622C100.816 32.8012 100.117 33.1707 98.7185 33.1707C98.5058 33.1707 98.24 33.1885 97.921 33.2247C97.602 33.2593 97.3911 33.2779 97.2901 33.2779C97.1784 33.2779 97.0623 33.2522 96.9409 33.2017C96.8195 33.1503 96.7229 33.1255 96.6521 33.1255C96.5608 33.1255 96.4216 33.161 96.2338 33.2318C96.0468 33.3027 95.8821 33.3382 95.7403 33.3382C95.5675 33.348 95.3982 33.3231 95.2307 33.262C95.0642 33.2017 94.8639 33.1707 94.6309 33.1707C94.2862 33.1707 94.038 33.1202 93.8865 33.0192C93.7341 32.9181 93.5923 32.8677 93.4612 32.8677C93.4 32.8677 93.2707 32.8136 93.0731 32.7073C92.8755 32.6009 92.6557 32.5478 92.4121 32.5478H87.8991C87.9035 32.5478 87.9071 32.5495 87.9115 32.5495H87.8867C87.8911 32.5495 87.8947 32.5478 87.8991 32.5478H81.8966C80.9547 32.5478 80.2706 32.2997 79.8453 31.8034L78.8723 30.6639C78.5684 30.3095 78.4168 29.94 78.4168 29.5545C78.4168 29.2302 78.5329 28.9369 78.766 28.6728L82.018 24.9955C82.2103 24.7829 82.3069 24.5808 82.3069 24.3876C82.3069 24.1147 82.104 23.9774 81.699 23.9774H80.073C79.3437 23.9774 78.7864 24.2157 78.4018 24.6915L76.1528 27.4119C75.95 27.6547 75.7426 27.7761 75.5299 27.7761C75.3474 27.7761 75.1879 27.6981 75.0505 27.5412C74.9141 27.3844 74.8459 27.2143 74.8459 27.0318V24.8891C74.8459 24.7775 74.8583 24.6464 74.884 24.494C74.9088 24.3424 74.9221 24.2458 74.9221 24.2051C74.9221 24.0535 74.8202 23.9774 74.6181 23.9774H72.612C72.1352 23.9774 71.8978 24.2104 71.8978 24.6765V31.4694C71.8978 31.753 71.7968 31.9957 71.5938 32.1987C71.3812 32.4317 71.0976 32.5478 70.7432 32.5478H66.3817C66.3862 32.5478 66.3888 32.5495 66.3941 32.5495H66.3693C66.3738 32.5495 66.3773 32.5478 66.3817 32.5478H61.9592C61.3008 32.5478 60.9012 32.2598 60.7594 31.682C60.5866 30.9829 60.2472 30.3653 59.7413 29.8283C60.6123 29.1088 61.0483 28.1872 61.0483 27.0619C61.0483 25.9073 60.6628 25.0008 59.8928 24.3424C59.1733 23.7248 58.2261 23.4155 57.051 23.4155H51.4589C50.7092 23.4155 50.3344 23.7797 50.3344 24.509V30.9829C50.3344 31.3684 50.213 31.7122 49.9702 32.0161C49.6866 32.3706 49.2959 32.5478 48.7996 32.5478H44.8184C44.8228 32.5478 44.8263 32.5495 44.8308 32.5495H44.806C44.8113 32.5495 44.8139 32.5478 44.8184 32.5478H40.0467C39.6311 32.5478 39.2208 32.429 38.8159 32.1907C38.4109 31.9532 38.1425 31.6466 38.0104 31.2718L35.944 25.1629C35.8022 24.758 35.6224 24.4816 35.4044 24.3345C35.1864 24.1882 34.8807 24.1147 34.4855 24.1147H32.8285C32.2614 24.1147 31.8413 24.2769 31.5675 24.6003C31.3549 24.8032 31.1475 25.0061 30.9446 25.2081C30.6611 25.4917 30.4431 25.8719 30.2915 26.3477L28.7719 30.8004C28.3766 31.9656 27.4241 32.5478 25.9151 32.5478H21.8115C21.8168 32.5478 21.8195 32.5495 21.8239 32.5495H21.8C21.8044 32.5495 21.8071 32.5478 21.8115 32.5478H18.0128C17.5874 32.5478 17.2729 32.3963 17.0709 32.0923C16.8679 31.7884 16.7917 31.4136 16.8431 30.9679C16.8732 30.6737 16.8883 30.3697 16.8883 30.056C16.8883 28.1111 16.3416 26.6091 15.2472 25.5502C14.1529 24.4922 12.6332 23.9623 10.6882 23.9623H6.75304C6.03349 23.9623 5.67375 24.2769 5.67375 24.9042V25.4819C5.67375 25.6034 5.60991 25.816 5.48406 26.1199C5.35652 26.4239 5.29359 26.6472 5.29359 26.789C5.29359 26.89 5.33166 27.0371 5.4079 27.2293C5.48407 27.4216 5.52134 27.5687 5.52134 27.6698C5.52134 27.7415 5.50623 27.8301 5.47612 27.9365C5.446 28.0428 5.43092 28.1208 5.43092 28.1713C5.43092 28.2422 5.47081 28.3645 5.5523 28.5364C5.63294 28.7083 5.67375 28.9015 5.67375 29.1141V30.6489C5.67375 31.2364 5.49122 31.6998 5.12702 32.0392C4.7619 32.3785 4.25505 32.5478 3.60728 32.5478H0.157693C-0.15599 32.5478 -0.313721 32.7046 -0.313721 33.0192C-0.313721 33.3329 -0.15599 33.4906 0.157693 33.4906H1.44877C1.69245 33.4906 1.91041 33.5305 2.10271 33.612C2.29502 33.6926 2.45713 33.7333 2.5892 33.7333C2.75047 33.7333 2.90551 33.6926 3.05261 33.612C3.19879 33.5305 3.34326 33.4906 3.48505 33.4906H4.30558C4.69104 33.4906 5.01534 33.6217 5.2785 33.8858C5.54167 34.149 5.67375 34.4024 5.67375 34.6452C5.67375 34.8171 5.78541 34.9739 6.00776 35.1166C6.2311 35.2584 6.35249 35.44 6.3729 35.6633C6.41272 36.0382 6.48896 36.2251 6.60063 36.2251C6.63074 36.2251 6.77252 36.1675 7.02591 36.0506C7.27936 35.9344 7.52212 35.876 7.75517 35.876H10.8707C11.2252 35.876 11.5442 35.7847 11.8277 35.6022C12.1113 35.4205 12.2841 35.3293 12.3443 35.3293C12.3851 35.3293 12.464 35.3514 12.58 35.3975C12.697 35.4427 12.7954 35.4657 12.8769 35.4657C13.1294 35.4657 13.3678 35.3293 13.5911 35.0555C13.9553 34.5894 14.2495 34.3563 14.4719 34.3563C14.5126 34.3563 14.5605 34.3661 14.6163 34.3864C14.6721 34.4068 14.7156 34.4175 14.7457 34.4175C14.8068 34.4175 14.9787 34.2624 15.2623 33.954C15.5458 33.6448 15.8905 33.4906 16.2955 33.4906H16.8732C17.015 33.4906 17.1639 33.5455 17.3216 33.6572C17.4784 33.7688 17.6282 33.814 17.77 33.7945C17.8808 33.7742 18.0278 33.7333 18.2104 33.6723C18.3318 33.6421 18.4328 33.6368 18.5143 33.6572C18.7473 33.7077 18.9955 33.7032 19.2586 33.6421C19.2994 33.6324 19.3853 33.5969 19.5174 33.5358C19.598 33.5057 19.7194 33.4906 19.8815 33.4906H21.8115C21.7867 33.4906 21.7689 33.4826 21.7459 33.4808H21.8779C21.8549 33.4826 21.8372 33.4906 21.8115 33.4906H26.6443C27.2823 33.4906 27.6013 33.7032 27.6013 34.1286C27.6013 34.2198 27.5756 34.351 27.5251 34.5238C27.4746 34.6957 27.4498 34.8321 27.4498 34.9341C27.4498 35.2982 27.6066 35.4604 27.9203 35.4205C28.0524 35.4002 28.1888 35.3213 28.3306 35.1848C28.4724 35.0475 28.6097 34.9792 28.7408 34.9792C28.8118 34.9792 28.8879 34.9899 28.9695 35.0103C29.1414 35.0608 29.2929 35.0856 29.425 35.0856C29.4958 35.0856 29.5791 35.0785 29.6757 35.0634C29.7723 35.0475 29.8449 35.0404 29.8964 35.0404C29.9468 35.0404 30.0027 35.0448 30.063 35.0555C30.2251 35.0856 30.3367 35.0076 30.3979 34.8197C30.4581 34.6328 30.5193 34.4352 30.5795 34.2269C30.6406 34.0196 30.7877 33.845 31.0208 33.7032C31.2538 33.5606 31.486 33.4906 31.7199 33.4906C31.9929 33.4906 32.2259 33.5358 32.4182 33.6271C32.5804 33.7183 32.7478 33.7538 32.9198 33.7333C33.3964 33.6723 33.7863 33.6625 34.0902 33.7032C34.2321 33.713 34.404 33.6802 34.6069 33.604C34.8089 33.5278 34.9507 33.4906 35.0322 33.4906C35.539 33.4906 35.8678 33.7032 36.0202 34.1286C36.0707 34.2908 36.1567 34.3714 36.2781 34.3714C36.3596 34.3714 36.4704 34.3359 36.613 34.2651C36.6635 34.2349 36.7371 34.2908 36.8328 34.4325C36.9293 34.5743 37.0428 34.6248 37.1748 34.5841C37.2563 34.5636 37.3219 34.5539 37.3724 34.5539C37.4131 34.5539 37.4867 34.569 37.593 34.6C37.6994 34.6301 37.8155 34.6425 37.9422 34.6372C38.0689 34.6328 38.1956 34.6726 38.3223 34.7595C38.4491 34.8454 38.5731 34.888 38.6944 34.888C38.9479 34.888 39.0746 34.7764 39.0746 34.5539C39.0746 34.483 39.0543 34.3793 39.0135 34.2429C38.9727 34.1056 38.9532 34.0019 38.9532 33.931C38.9532 33.6368 39.1552 33.4906 39.5611 33.4906H44.8184C44.7935 33.4906 44.7758 33.4826 44.7528 33.4808H44.8848C44.8618 33.4826 44.844 33.4906 44.8184 33.4906H45.6539C45.8268 33.4906 46.0084 33.5437 46.2016 33.6501C46.3939 33.7564 46.5507 33.799 46.6721 33.7786C46.6827 33.7688 46.8095 33.7281 47.0522 33.6572C47.1737 33.6271 47.3004 33.6164 47.4324 33.6271C47.5741 33.6572 47.7159 33.6882 47.8577 33.7183C48.0092 33.7387 48.1333 33.7254 48.2299 33.6802C48.3264 33.635 48.4222 33.5916 48.5187 33.5508C48.6145 33.5101 48.7695 33.4906 48.9822 33.4906H49.6964C50.1217 33.4906 50.3344 33.6926 50.3344 34.0985V34.4024C50.3344 34.7764 50.3291 34.9438 50.3193 34.9039C50.3397 35.0147 50.3928 35.083 50.4788 35.1086C50.5647 35.1334 50.6437 35.1618 50.7145 35.1919C50.7854 35.2229 50.8563 35.2531 50.9272 35.2832C50.9981 35.3142 51.0636 35.3142 51.1248 35.2832C51.1549 35.2628 51.193 35.2203 51.2391 35.1538C51.2843 35.0883 51.3427 35.0555 51.4137 35.0555C51.6157 35.0652 51.7575 35.0147 51.839 34.9039C51.8594 34.8826 51.94 34.7462 52.0818 34.4928C52.2643 34.1384 53.1664 34.4423 53.2071 34.0985C53.247 33.7538 53.2674 33.5154 53.2674 33.3842V32.1074C53.2674 31.4189 53.7184 31.0742 54.6196 31.0742H55.7901C55.9727 31.0742 56.1703 31.0946 56.3829 31.1345C57.051 31.2665 57.487 31.6723 57.69 32.3502C57.7298 32.4822 57.7963 32.7764 57.8867 33.2318C57.8973 33.4445 57.9531 33.7431 58.0542 34.1286C58.1153 34.2198 58.1809 34.2651 58.2518 34.2651C58.343 34.2349 58.429 34.2092 58.5105 34.1888C58.5707 34.1888 58.6717 34.1941 58.8145 34.2048C58.8747 34.1738 58.9757 34.1339 59.1184 34.0825C59.3107 34.0116 59.4772 34.0728 59.6199 34.2651C59.6802 34.3661 59.7359 34.468 59.7865 34.569C59.868 34.701 59.954 34.7764 60.0452 34.7967C60.156 34.8171 60.2171 34.7764 60.2269 34.6753C60.2171 34.5743 60.2118 34.4777 60.2118 34.3864C60.2118 34.2651 60.2472 34.1844 60.3182 34.1437C60.4502 34.0621 60.5308 34.0019 60.5618 33.9611C60.6123 33.8601 60.708 33.7227 60.8507 33.5508C60.9313 33.5101 62.1169 33.4906 64.4066 33.4906H66.3817C66.3561 33.4906 66.3383 33.4826 66.3153 33.4808H66.4474C66.4243 33.4826 66.4066 33.4906 66.3817 33.4906H67.5665C67.5904 33.4906 67.6161 33.4826 67.6409 33.4808H67.6551V33.479C67.8022 33.4666 67.9564 33.4294 68.1212 33.3533C68.3188 33.262 68.4836 33.2221 68.6156 33.2318C68.7671 33.2318 68.9063 33.2903 69.033 33.4064C69.1597 33.5234 69.2741 33.5863 69.375 33.5969C69.4965 33.6067 69.6258 33.5792 69.7623 33.5128C69.8996 33.4472 69.998 33.4241 70.0591 33.4445C70.13 33.4746 70.4136 33.4906 70.9098 33.4906C71.204 33.4906 71.4414 33.5792 71.6239 33.7564C71.8065 33.9337 71.8978 34.1339 71.8978 34.3563V34.7515C71.8978 35.0253 71.974 35.2176 72.1255 35.3293C72.2469 35.4099 72.3789 35.4356 72.5207 35.4046C72.5508 35.3948 72.6448 35.347 72.8016 35.261C72.9487 35.1795 73.0541 35.1405 73.1259 35.1352C73.1277 35.1308 73.1277 35.1237 73.1304 35.1202C73.1685 35.0652 73.4511 34.9385 73.5699 34.9243C73.5699 34.9217 73.569 34.9208 73.569 34.919C73.569 34.6346 73.6151 34.5282 73.7064 34.6C73.7258 34.6195 73.7816 34.701 73.8729 34.8428C73.9235 34.9039 73.9952 34.9235 74.0856 34.9039C74.137 34.8933 74.23 34.9057 74.3674 34.9412C74.5038 34.9766 74.5977 34.9943 74.6483 34.9943C74.7794 34.9943 74.8459 34.9137 74.8459 34.7515V33.8858C74.8459 33.7635 74.8813 33.5969 74.9522 33.3842C75.0231 33.1707 75.0638 33.0245 75.0736 32.943C75.0736 32.8624 75.0355 32.6975 74.9602 32.4494C74.884 32.2013 74.8459 32.0462 74.8459 31.986V31.5607C74.8459 31.2869 74.9522 31.1504 75.1649 31.1504C75.4076 31.1504 75.6611 31.317 75.9252 31.6519L77.4138 33.4746C77.5759 33.6572 77.7886 33.9514 78.0518 34.3563C78.0828 34.5282 78.1581 34.7666 78.2804 35.0705C78.3912 35.2425 78.5232 35.2982 78.6756 35.238C78.7358 35.2176 78.7944 35.1591 78.8502 35.0634C78.9051 34.9668 78.9388 34.9137 78.9486 34.9039C79.03 34.8224 79.1869 34.787 79.42 34.7967C79.5715 34.8073 79.7088 34.7365 79.8302 34.5841C79.9215 34.4529 80.0128 34.3209 80.104 34.1888C80.174 34.118 80.2555 34.0825 80.3468 34.0825L80.9697 34.1135C81.0309 33.8194 81.2533 33.6324 81.6388 33.5508C81.831 33.5101 82.1447 33.4906 82.5807 33.4906H82.7933C82.9856 33.4906 83.1247 33.5305 83.2116 33.612C83.2975 33.6926 83.411 33.7333 83.5528 33.7333C83.6945 33.7333 83.8416 33.713 83.994 33.6723C84.1048 33.6519 84.2164 33.6519 84.3281 33.6723C84.4087 33.6926 84.5257 33.7688 84.6781 33.9009C84.7995 34.0222 84.9262 34.0781 85.0573 34.0674C85.1893 34.0577 85.301 34.0045 85.3923 33.9079C85.4827 33.8114 85.5669 33.7662 85.6422 33.7715C85.7184 33.7768 85.8558 33.7307 86.0533 33.635C86.2501 33.5384 86.3945 33.4906 86.4857 33.4906H87.8991C87.8743 33.4906 87.8557 33.4826 87.8326 33.4808H87.9656C87.9425 33.4826 87.9248 33.4906 87.8991 33.4906C87.9558 33.4906 88.0453 33.4844 88.1259 33.4808H88.6717C88.7896 33.4879 88.9385 33.5207 89.1299 33.5889C89.3426 33.6652 89.51 33.7032 89.6314 33.7032C89.6412 33.7032 89.7227 33.6882 89.8743 33.6572C89.9557 33.6475 90.047 33.6519 90.148 33.6723C90.2792 33.7227 90.3811 33.7431 90.452 33.7333C90.4821 33.7333 90.5353 33.7209 90.6115 33.6953C90.6877 33.6696 90.7506 33.6572 90.8011 33.6572C90.9127 33.6776 90.9837 33.7333 91.0138 33.8247C91.0846 33.9762 91.1254 34.0577 91.1361 34.0674C91.1865 34.1286 91.2468 34.1587 91.3177 34.1587C91.3691 34.1587 91.4471 34.1339 91.5534 34.0825C91.6597 34.032 91.7386 34.0072 91.7891 34.0072C91.8502 33.9966 91.9336 34.0116 92.0398 34.0524C92.1462 34.0932 92.2295 34.1135 92.2906 34.1135C92.3411 34.1135 92.397 34.1029 92.4581 34.0825C92.8125 33.9514 93.0784 33.9611 93.2556 34.1135C93.4328 34.2651 93.5215 34.5442 93.5215 34.9491C93.5215 35.2628 93.6428 35.4755 93.8865 35.5871C94.0584 35.6687 94.3517 35.7085 94.7673 35.7085H98.7185C100.37 35.7085 101.56 35.5065 102.289 35.1007C102.746 34.8375 103.125 34.4928 103.429 34.0674C103.693 33.6829 104.057 33.4906 104.523 33.4906C104.767 33.4906 104.962 33.5207 105.108 33.5819C105.255 33.6421 105.364 33.6678 105.435 33.6572C105.536 33.6572 105.66 33.6147 105.807 33.5278C105.954 33.4418 106.073 33.3993 106.164 33.3993C106.276 33.3993 106.491 33.4144 106.81 33.4445C106.962 33.4587 107.082 33.4693 107.181 33.4773V33.4808H107.236C107.31 33.4861 107.378 33.4906 107.411 33.4906H109.401C109.377 33.4906 109.359 33.4826 109.336 33.4808H109.468C109.445 33.4826 109.426 33.4906 109.401 33.4906H113.474C113.656 33.4906 113.783 33.5482 113.854 33.6652C113.925 33.7812 113.991 33.845 114.052 33.8548C114.365 33.9053 114.502 34.032 114.462 34.2349C114.512 34.2748 114.563 34.3156 114.613 34.3563C114.837 34.2446 114.999 34.1888 115.1 34.1888C115.322 34.1994 115.495 34.3864 115.616 34.7515C115.647 34.8525 115.702 34.9039 115.784 34.9039C115.865 34.9039 116.1 34.7843 116.49 34.5459C116.88 34.3085 118.035 34.9544 117.98 35.1768C117.924 35.4002 118.453 35.5092 118.443 35.4126C118.433 35.316 118.615 34.7666 118.99 34.7666C119.75 34.7666 120.129 34.6098 120.129 34.2961C120.129 34.0932 120.215 33.9921 120.388 33.9921C120.428 33.9921 120.464 34.0072 120.495 34.0373C120.697 34.2092 120.946 34.2446 121.239 34.1437C121.289 34.1233 121.396 34.0019 121.558 33.7786C121.7 33.5863 121.878 33.4906 122.09 33.4906H125.645C125.621 33.4906 125.603 33.4826 125.58 33.4808H125.712C125.689 33.4826 125.671 33.4906 125.646 33.4906H126.937C127.18 33.4906 127.398 33.5305 127.59 33.612C127.783 33.6926 127.945 33.7333 128.077 33.7333C128.239 33.7333 128.393 33.6926 128.54 33.612C128.687 33.5305 128.832 33.4906 128.974 33.4906H129.794C130.179 33.4906 130.503 33.6217 130.767 33.8858C131.03 34.149 131.162 34.4024 131.162 34.6452C131.162 34.8171 131.273 34.9739 131.496 35.1166C131.719 35.2584 131.84 35.44 131.861 35.6633C131.901 36.0382 131.978 36.2251 132.089 36.2251C132.119 36.2251 132.261 36.1675 132.515 36.0506C132.767 35.9344 133.011 35.876 133.244 35.876H136.359C136.714 35.876 137.033 35.7847 137.316 35.6022C137.6 35.4205 137.772 35.3293 137.833 35.3293C137.874 35.3293 137.952 35.3514 138.069 35.3975C138.185 35.4427 138.284 35.4657 138.365 35.4657C138.618 35.4657 138.856 35.3293 139.079 35.0555C139.444 34.5894 139.737 34.3563 139.961 34.3563C140 34.3563 140.049 34.3661 140.105 34.3864C140.161 34.4068 140.203 34.4175 140.234 34.4175C140.295 34.4175 140.466 34.2624 140.751 33.954C141.034 33.6448 141.378 33.4906 141.784 33.4906H142.362C142.503 33.4906 142.653 33.5455 142.809 33.6572C142.967 33.7688 143.116 33.814 143.258 33.7945C143.369 33.7742 143.516 33.7333 143.699 33.6723C143.82 33.6421 143.921 33.6368 144.003 33.6572C144.236 33.7077 144.484 33.7032 144.747 33.6421C144.788 33.6324 144.874 33.5969 145.005 33.5358C145.087 33.5057 145.208 33.4906 145.37 33.4906H147.3C147.274 33.4906 147.257 33.4826 147.234 33.4808H147.367C147.343 33.4826 147.325 33.4906 147.3 33.4906H151.403C151.798 33.4906 152.132 33.604 152.406 33.8318C152.68 34.0604 152.816 34.3412 152.816 34.6753C152.816 34.9695 152.97 35.2425 153.28 35.4958C153.589 35.7493 153.996 35.876 154.503 35.876C154.877 35.876 155.21 35.79 155.498 35.6181C155.787 35.4453 156.023 35.3594 156.205 35.3594C156.387 35.3594 156.661 35.3842 157.025 35.4356C157.39 35.4861 157.668 35.5109 157.862 35.5109C158.47 35.5109 158.895 35.4356 159.138 35.2832C159.442 35.0803 159.73 34.9792 160.004 34.9792C160.055 34.9792 160.128 34.9916 160.224 35.0173C160.321 35.0431 160.389 35.0555 160.43 35.0555C160.51 35.0555 160.622 35.0227 160.764 34.9571C160.905 34.8906 161.002 34.8578 161.052 34.8578C161.204 34.8578 161.28 34.9792 161.28 35.2229C161.28 35.2734 161.746 35.3443 161.675 34.919C161.645 34.7462 161.663 34.5787 161.729 34.4175C161.794 34.2553 161.893 34.1941 162.025 34.2349C162.572 34.3767 162.881 34.4476 162.952 34.4476C163.094 34.4476 163.21 34.4219 163.301 34.3714C163.504 34.1994 163.706 34.0222 163.909 33.8397C164.243 33.6067 164.654 33.4906 165.14 33.4906H168.529C168.843 33.4906 169 33.3329 169 33.0192ZM13.8489 30.01C13.8489 31.0742 13.5352 31.885 12.907 32.4414C12.3195 32.958 11.4936 33.2168 10.4304 33.2168H9.79146C9.56904 33.2168 9.3413 33.1255 9.10825 32.943C8.84424 32.7401 8.71308 32.4972 8.71308 32.2137V27.7459C8.71308 26.9963 9.09762 26.6215 9.86769 26.6215H10.5216C11.382 26.6215 12.0759 26.8191 12.603 27.2143C13.4333 27.8523 13.8489 28.7845 13.8489 30.01ZM34.7283 30.3139C34.7283 30.5877 34.5714 30.7242 34.2568 30.7242H32.4341C32.0487 30.7242 31.8564 30.5726 31.8564 30.2687C31.8564 30.2182 31.8662 30.1624 31.8865 30.1012L32.7984 27.3817C32.8896 27.108 33.0615 26.9715 33.3149 26.9715C33.5684 26.9715 33.7358 27.1026 33.8165 27.3658L34.6981 30.1323C34.7185 30.1925 34.7283 30.2536 34.7283 30.3139ZM57.8414 27.3508C57.8414 27.7868 57.806 28.0853 57.7352 28.2475C57.5526 28.6533 57.1371 28.8554 56.4893 28.8554H54.4379C53.6573 28.8554 53.2674 28.5665 53.2674 27.9896V27.1691C53.2674 26.9361 53.3613 26.7181 53.5483 26.5152C53.7361 26.3131 53.9816 26.2113 54.2855 26.2113H56.4893C57.3904 26.2113 57.8414 26.5913 57.8414 27.3508ZM139.338 30.01C139.338 31.0742 139.023 31.885 138.396 32.4414C137.807 32.958 136.982 33.2168 135.918 33.2168H135.28C135.057 33.2168 134.829 33.1255 134.596 32.943C134.333 32.7401 134.201 32.4972 134.201 32.2137V27.7459C134.201 26.9963 134.586 26.6215 135.356 26.6215H136.009C136.871 26.6215 137.564 26.8191 138.092 27.2143C138.922 27.8523 139.338 28.7845 139.338 30.01Z" fill="#B31111"/>
</g>
<defs>
<clipPath id="clip0_838_5240">
<rect width="174" height="55" fill="white" transform="translate(0 0.189941)"/>
</clipPath>
</defs>
</svg>
